<svg width="150" height="11" viewBox="0 0 150 11" fill="none" xmlns="http://www.w3.org/2000/svg">
<path d="M139.868 10.3219H140.798L141.306 3.80601C141.348 3.29827 141.348 2.49437 141.348 2.49437H141.391C141.391 2.49437 141.687 3.34059 141.898 3.80601L144.097 8.58715H144.943L147.1 3.80601C147.312 3.34059 147.608 2.49437 147.608 2.49437H147.65C147.65 2.49437 147.65 3.29827 147.692 3.80601L148.2 10.3219H149.131L148.369 0.971171H147.439L144.986 6.4716C144.774 6.93702 144.52 7.61399 144.52 7.61399H144.478C144.478 7.61399 144.224 6.93702 144.013 6.4716L141.56 0.971171H140.587L139.868 10.3219ZM128.11 7.10626C128.11 9.1795 129.59 10.5335 131.705 10.5335C133.82 10.5335 135.258 9.1795 135.258 7.10626V1.01348H134.327V7.06395C134.327 8.71408 133.27 9.68723 131.663 9.68723C130.056 9.68723 129.041 8.71408 129.041 7.10626V1.01348H128.11V7.10626ZM116.183 7.10626C116.183 9.1795 117.663 10.5335 119.778 10.5335C121.893 10.5335 123.331 9.1795 123.331 7.10626V1.01348H122.4V7.06395C122.4 8.71408 121.343 9.68723 119.736 9.68723C118.129 9.68723 117.113 8.71408 117.113 7.10626V1.01348H116.183V7.10626ZM104.002 10.3219H104.933V3.63676C104.933 3.12903 104.848 2.36743 104.848 2.36743H104.89C104.89 2.36743 105.356 3.17134 105.652 3.63676L110.389 10.3219H111.277V1.01348H110.346V7.74093C110.346 8.24866 110.431 9.01026 110.431 9.01026H110.389C110.389 9.01026 109.923 8.20635 109.627 7.74093L104.89 1.01348H104.002V10.3219ZM98.0386 10.3219H98.9691V1.01348H98.0386V10.3219ZM90.0026 10.3219H90.9331V1.81739H94.2744V1.01348H86.6614V1.81739H90.0026V10.3219ZM75.5802 10.3219H76.5107V3.63676C76.5107 3.12903 76.4261 2.36743 76.4261 2.36743H76.4684C76.4684 2.36743 76.9336 3.17134 77.2297 3.63676L82.0089 10.3642H82.8971V1.01348H81.9667V7.74093C81.9667 8.24866 82.0512 9.01026 82.0512 9.01026H82.0089C82.0089 9.01026 81.5437 8.20635 81.2477 7.74093L76.4684 1.01348H75.5802V10.3219ZM62.638 5.62538C62.638 3.3829 64.3298 1.69046 66.4445 1.69046C68.5593 1.69046 70.2511 3.3829 70.2511 5.62538C70.2511 7.91017 68.5593 9.64492 66.4445 9.64492C64.3298 9.64492 62.638 7.91017 62.638 5.62538ZM61.7075 5.62538C61.7075 8.37559 63.8223 10.5335 66.4445 10.5335C69.0668 10.5335 71.1815 8.37559 71.1815 5.62538C71.1815 2.95979 69.0668 0.844238 66.4445 0.844238C63.8223 0.844238 61.7075 2.91748 61.7075 5.62538ZM49.8228 5.62538C49.8228 8.33328 51.7683 10.5335 54.5597 10.5335C56.8437 10.5335 58.1125 9.09488 58.1125 9.09488L57.5627 8.46021C57.5627 8.46021 56.4207 9.68723 54.5175 9.68723C52.3181 9.68723 50.7532 7.86786 50.7532 5.62538C50.7532 3.42521 52.3181 1.73277 54.5175 1.73277C56.2515 1.73277 57.3512 2.74823 57.3512 2.74823L57.8587 2.07126C57.8587 2.07126 56.7168 0.844238 54.5175 0.844238C51.8106 0.844238 49.8228 2.91748 49.8228 5.62538Z" fill="white"/>
<path d="M30.6213 10.3216H32.3131L32.736 5.07502C32.7783 4.44035 32.736 3.59413 32.736 3.59413H32.7783C32.7783 3.59413 33.0744 4.52498 33.2859 5.07502L34.8085 8.71376H36.2888L37.8114 5.07502C38.0229 4.52498 38.3189 3.59413 38.3189 3.59413H38.3612C38.3612 3.59413 38.3189 4.44035 38.3612 5.07502L38.7419 10.3639H40.4336L39.7146 0.928541H37.896L36.035 5.58275C35.8235 6.13279 35.5698 6.97901 35.5698 6.97901H35.5275C35.5275 6.97901 35.2737 6.1751 35.0622 5.58275L33.2013 0.928541H31.3826L30.6213 10.3216ZM23.2197 2.53636C23.2197 2.53636 23.4312 3.4672 23.6004 4.01724L24.4463 6.5559H21.9932L22.8391 4.01724C22.966 3.4672 23.1774 2.53636 23.2197 2.53636ZM25.6305 10.3216H27.4069L24.0656 0.928541H22.2893L18.9903 10.3639H20.7244L21.528 7.95217H24.8269L25.6305 10.3216ZM11.6733 5.58275V2.36712H13.3228C14.2956 2.36712 14.8877 3.00178 14.8877 3.97493C14.8877 4.94809 14.2956 5.58275 13.3228 5.58275H11.6733ZM9.93923 10.3216H11.631V7.06363H13.5766C15.3529 7.06363 16.5795 5.79431 16.5795 3.97493C16.5795 2.15556 15.3529 0.88623 13.5766 0.88623H9.93923V10.3216ZM0 10.3216H5.83666V8.88301H1.69178V6.34435H4.86388V4.86346H1.69178V2.36712H5.62518V0.928541H0V10.3216Z" fill="white"/>
</svg>
