<svg width="150" height="11" viewBox="0 0 150 11" fill="none" xmlns="http://www.w3.org/2000/svg">
<g clip-path="url(#clip0_19858_46673)">
<path d="M139.867 10.3214H140.797L141.305 3.80552C141.347 3.29778 141.347 2.49388 141.347 2.49388H141.39C141.39 2.49388 141.686 3.3401 141.897 3.80552L144.096 8.58666H144.942L147.099 3.80552C147.311 3.3401 147.607 2.49388 147.607 2.49388H147.649C147.649 2.49388 147.649 3.29778 147.691 3.80552L148.199 10.3214H149.13L148.368 0.970683H147.438L144.985 6.47111C144.773 6.93653 144.519 7.6135 144.519 7.6135H144.477C144.477 7.6135 144.223 6.93653 144.012 6.47111L141.559 0.970683H140.586L139.867 10.3214ZM128.109 7.10577C128.109 9.17901 129.589 10.533 131.704 10.533C133.819 10.533 135.257 9.17901 135.257 7.10577V1.01299H134.326V7.06346C134.326 8.71359 133.269 9.68674 131.662 9.68674C130.055 9.68674 129.04 8.71359 129.04 7.10577V1.01299H128.109V7.10577ZM116.182 7.10577C116.182 9.17901 117.662 10.533 119.777 10.533C121.892 10.533 123.33 9.17901 123.33 7.10577V1.01299H122.399V7.06346C122.399 8.71359 121.342 9.68674 119.735 9.68674C118.128 9.68674 117.112 8.71359 117.112 7.10577V1.01299H116.182V7.10577ZM104.001 10.3214H104.932V3.63627C104.932 3.12854 104.847 2.36694 104.847 2.36694H104.889C104.889 2.36694 105.355 3.17085 105.651 3.63627L110.388 10.3214H111.276V1.01299H110.345V7.74044C110.345 8.24817 110.43 9.00977 110.43 9.00977H110.388C110.388 9.00977 109.922 8.20586 109.626 7.74044L104.889 1.01299H104.001V10.3214ZM98.0381 10.3214H98.9686V1.01299H98.0381V10.3214ZM90.0021 10.3214H90.9326V1.8169H94.2739V1.01299H86.6609V1.8169H90.0021V10.3214ZM75.5797 10.3214H76.5102V3.63627C76.5102 3.12854 76.4256 2.36694 76.4256 2.36694H76.4679C76.4679 2.36694 76.9331 3.17085 77.2292 3.63627L82.0084 10.3637H82.8966V1.01299H81.9662V7.74044C81.9662 8.24817 82.0507 9.00977 82.0507 9.00977H82.0084C82.0084 9.00977 81.5432 8.20586 81.2472 7.74044L76.4679 1.01299H75.5797V10.3214ZM62.6375 5.62489C62.6375 3.38241 64.3293 1.68997 66.444 1.68997C68.5588 1.68997 70.2506 3.38241 70.2506 5.62489C70.2506 7.90968 68.5588 9.64443 66.444 9.64443C64.3293 9.64443 62.6375 7.90968 62.6375 5.62489ZM61.707 5.62489C61.707 8.3751 63.8218 10.533 66.444 10.533C69.0663 10.533 71.181 8.3751 71.181 5.62489C71.181 2.9593 69.0663 0.84375 66.444 0.84375C63.8218 0.84375 61.707 2.91699 61.707 5.62489ZM49.8223 5.62489C49.8223 8.33279 51.7678 10.533 54.5592 10.533C56.8432 10.533 58.112 9.09439 58.112 9.09439L57.5622 8.45972C57.5622 8.45972 56.4202 9.68674 54.517 9.68674C52.3176 9.68674 50.7527 7.86737 50.7527 5.62489C50.7527 3.42472 52.3176 1.73228 54.517 1.73228C56.251 1.73228 57.3507 2.74774 57.3507 2.74774L57.8582 2.07077C57.8582 2.07077 56.7163 0.84375 54.517 0.84375C51.8101 0.84375 49.8223 2.91699 49.8223 5.62489Z" fill="#282829"/>
<path d="M30.6213 10.3221H32.3131L32.736 5.07551C32.7783 4.44084 32.736 3.59462 32.736 3.59462H32.7783C32.7783 3.59462 33.0744 4.52547 33.2859 5.07551L34.8085 8.71425H36.2888L37.8114 5.07551C38.0229 4.52547 38.3189 3.59462 38.3189 3.59462H38.3612C38.3612 3.59462 38.3189 4.44084 38.3612 5.07551L38.7419 10.3644H40.4336L39.7146 0.92903H37.896L36.035 5.58324C35.8235 6.13328 35.5698 6.9795 35.5698 6.9795H35.5275C35.5275 6.9795 35.2737 6.17559 35.0622 5.58324L33.2013 0.92903H31.3826L30.6213 10.3221ZM23.2197 2.53685C23.2197 2.53685 23.4312 3.46769 23.6004 4.01773L24.4463 6.55639H21.9932L22.8391 4.01773C22.966 3.46769 23.1774 2.53685 23.2197 2.53685ZM25.6305 10.3221H27.4069L24.0656 0.92903H22.2893L18.9903 10.3644H20.7244L21.528 7.95266H24.8269L25.6305 10.3221ZM11.6733 5.58324V2.36761H13.3228C14.2956 2.36761 14.8877 3.00227 14.8877 3.97542C14.8877 4.94858 14.2956 5.58324 13.3228 5.58324H11.6733ZM9.93923 10.3221H11.631V7.06412H13.5766C15.3529 7.06412 16.5795 5.7948 16.5795 3.97542C16.5795 2.15605 15.3529 0.886719 13.5766 0.886719H9.93923V10.3221ZM0 10.3221H5.83666V8.8835H1.69178V6.34484H4.86388V4.86395H1.69178V2.36761H5.62518V0.92903H0V10.3221Z" fill="#282829"/>
</g>
<defs>
<clipPath id="clip0_19858_46673">
<rect width="150" height="11" fill="white"/>
</clipPath>
</defs>
</svg>
