<svg width="59" height="22" viewBox="0 0 59 22" fill="none" xmlns="http://www.w3.org/2000/svg">
<path d="M11.0749 7.47648H14.3204V3.80981C14.3204 2.78579 13.846 2.26827 12.8756 2.26827H12.509C11.5493 2.26827 11.0641 2.78579 11.0641 3.80981V7.47648H11.0749ZM11.0749 9.82182L11.0857 13.8519C11.0857 14.8759 11.5709 15.3824 12.5305 15.3824H12.951C13.9107 15.3824 14.3959 14.8759 14.3959 13.8519V11.8699H16.6063V13.7528C16.6063 16.3403 15.3771 17.6617 12.9403 17.6617H12.4551C10.0182 17.6617 8.78906 16.3513 8.78906 14.0611V4.20621C8.78906 1.31031 10.0182 0 12.4551 0H12.9403C15.3771 0 16.6063 1.31031 16.6063 3.8979L16.5955 9.81081H11.0749V9.82182Z" fill="white"/>
<path d="M20.3679 14.4582C20.9933 15.0307 21.7157 15.3501 22.4704 15.3501C23.3115 15.3501 23.7967 14.9316 23.7967 13.9406V3.70041C23.7967 2.70942 23.3115 2.291 22.4704 2.291C21.7157 2.291 20.9933 2.61032 20.3679 3.18289V14.4582ZM18.082 0.198906H20.3679V1.32203C20.907 0.716423 21.8343 0.0117188 23.1605 0.0117188C25.1121 0.0117188 26.0717 1.3881 26.0717 3.43614V14.249C26.0717 16.297 25.1121 17.6734 23.1605 17.6734C21.8343 17.6734 20.907 17.0017 20.3679 16.4291V22.0007H18.082V0.198906Z" fill="white"/>
<path d="M32.9188 14.5573V8.86457L30.8486 9.70141C30.0076 10.0538 29.738 10.5052 29.738 11.4962V14.1168C29.738 14.9537 30.1262 15.3611 30.8486 15.3611C31.5387 15.3611 32.1748 15.1078 32.9188 14.5573ZM27.4522 11.4522C27.4522 9.30501 28.1099 8.44615 29.8566 7.80751L32.9188 6.68439V3.81052C32.9188 2.78649 32.4336 2.24695 31.474 2.24695H31.1074C30.1478 2.24695 29.6626 2.78649 29.6626 3.81052V6.25496H27.4414V3.90962C27.4414 1.32203 28.6706 0.0117188 31.1074 0.0117188H31.5387C33.9755 0.0117188 35.2047 1.32203 35.2047 3.90962V17.4752H32.9188V16.3851C32.2935 17.0237 31.4417 17.6624 30.1262 17.6624C28.2932 17.6624 27.4522 16.5392 27.4522 14.6233V11.4522V11.4522Z" fill="white"/>
<path d="M44.4361 17.4745H42.1502V3.55656C42.1502 2.6977 41.7621 2.31231 41.072 2.31231C40.4466 2.31231 39.7781 2.56557 38.9694 3.17117V17.4745H36.6836V0.198198H38.9694V1.32132C39.638 0.64965 40.5005 0 41.7621 0C42.9373 0 43.7137 0.517518 44.1342 1.40941C44.9536 0.671672 45.9133 0 47.2287 0C48.997 0 49.9027 1.15616 49.9027 3.03904V17.4635H47.6169V3.55656C47.6169 2.6977 47.2287 2.31231 46.5386 2.31231C45.9133 2.31231 45.2448 2.56557 44.4361 3.17117V17.4745Z" fill="white"/>
<path d="M0 7.7311V10.0654L5.86559 15.9343V12.6861L2.02708 8.86524L5.86559 4.96734V1.78516L0 7.7311Z" fill="white"/>
<path d="M52.8008 4.96734L56.6393 8.86524L52.8008 12.6971V15.9343L58.6664 10.0654V7.7311L52.8008 1.78516V4.96734Z" fill="white"/>
</svg>
